<svg id="visual" viewBox="0 0 1400 600" width="1400" height="600" xmlns="http://www.w3.org/2000/svg" xmlns:xlink="http://www.w3.org/1999/xlink" version="1.1"><rect x="0" y="0" width="1400" height="600" fill="none"></rect><path d="M0 314L156 341L311 320L467 284L622 376L778 360L933 265L1089 325L1244 280L1400 317L1400 601L1244 601L1089 601L933 601L778 601L622 601L467 601L311 601L156 601L0 601Z" fill="#5f9e3a"></path><path d="M0 383L156 339L311 304L467 387L622 341L778 379L933 331L1089 357L1244 403L1400 418L1400 601L1244 601L1089 601L933 601L778 601L622 601L467 601L311 601L156 601L0 601Z" fill="#72ab48"></path><path d="M0 381L156 392L311 451L467 455L622 450L778 358L933 419L1089 373L1244 401L1400 372L1400 601L1244 601L1089 601L933 601L778 601L622 601L467 601L311 601L156 601L0 601Z" fill="#84b857"></path><path d="M0 447L156 462L311 484L467 474L622 418L778 421L933 437L1089 486L1244 443L1400 473L1400 601L1244 601L1089 601L933 601L778 601L622 601L467 601L311 601L156 601L0 601Z" fill="#96c565"></path><path d="M0 466L156 494L311 518L467 496L622 473L778 501L933 500L1089 510L1244 479L1400 478L1400 601L1244 601L1089 601L933 601L778 601L622 601L467 601L311 601L156 601L0 601Z" fill="#a7d275"></path><path d="M0 552L156 558L311 565L467 560L622 529L778 550L933 524L1089 531L1244 514L1400 523L1400 601L1244 601L1089 601L933 601L778 601L622 601L467 601L311 601L156 601L0 601Z" fill="#b9df84"></path></svg>